<svg width="125" height="33" viewBox="0 0 125 33" fill="none" xmlns="http://www.w3.org/2000/svg">
<path d="M34.9964 16.915C34.9964 18.9175 35.9314 20.8925 38.1689 20.8925C40.4064 20.8925 41.3426 18.9175 41.3426 16.915C41.3426 14.9113 40.4064 12.9363 38.1689 12.9363C35.9314 12.9363 34.9964 14.9113 34.9964 16.915ZM43.1689 16.915C43.1689 19.8975 41.2989 22.3838 38.1689 22.3838C35.0401 22.3838 33.1676 19.8975 33.1676 16.915C33.1676 13.9313 35.0401 11.445 38.1689 11.445C41.2989 11.445 43.1689 13.9313 43.1689 16.915Z" fill="#1E71B8"/>
<path d="M48.3728 15.687C46.969 15.687 46.254 16.7533 46.254 18.3633C46.254 19.882 47.0278 21.0233 48.3728 21.0233C49.894 21.0233 50.464 19.677 50.464 18.3633C50.464 16.9883 49.749 15.687 48.3728 15.687ZM44.6453 14.5758H46.2253V15.5995H46.254C46.7203 14.7358 47.6278 14.3708 48.594 14.3708C50.9765 14.3708 52.1315 16.1833 52.1315 18.3908C52.1315 20.4233 51.1078 22.3395 48.8715 22.3395C47.9053 22.3395 46.8665 21.9883 46.3415 21.1558H46.3128V24.9283H44.6453V14.5758V14.5758Z" fill="#1E71B8"/>
<path d="M52.774 14.5755H54.0303V12.3093H55.699V14.5755H57.2053V15.8193H55.699V19.8518C55.699 20.5405 55.7565 20.8918 56.5015 20.8918C56.7353 20.8918 56.9703 20.8918 57.2053 20.833V22.1205C56.8378 22.148 56.4878 22.2068 56.1215 22.2068C54.3803 22.2068 54.0603 21.5343 54.0303 20.2768V15.8193H52.774V14.5755Z" fill="#1E71B8"/>
<path d="M58.4463 14.575H60.1125V22.1338H58.4463V14.575ZM58.4463 11.6938H60.1125V13.2738H58.4463V11.6938Z" fill="#1E71B8"/>
<path d="M67.5415 18.3481C67.5415 17.0456 66.884 15.6869 65.3915 15.6869C63.899 15.6869 63.244 17.0456 63.244 18.3481C63.244 19.6644 63.899 21.0231 65.3915 21.0231C66.884 21.0231 67.5415 19.6644 67.5415 18.3481ZM61.5753 18.3481C61.5753 16.0369 62.964 14.3706 65.3915 14.3706C67.819 14.3706 69.2078 16.0369 69.2078 18.3481C69.2078 20.6731 67.819 22.3394 65.3915 22.3394C62.964 22.3394 61.5753 20.6731 61.5753 18.3481Z" fill="#1E71B8"/>
<path d="M70.5969 14.5755H72.1756V15.6868L72.2031 15.7143C72.7006 14.8818 73.5656 14.3705 74.5581 14.3705C76.1956 14.3705 77.2356 15.2468 77.2356 16.9443V22.1343H75.5681V17.383C75.5369 16.198 75.0706 15.6868 74.0906 15.6868C72.9794 15.6868 72.2619 16.563 72.2619 17.6743V22.1343H70.5969V14.5755Z" fill="#1E71B8"/>
<path d="M79.1626 11.6941H85.7889V12.5429H80.1564V16.3154H85.1589V17.1629H80.1564V22.1354H79.1626V11.6941Z" fill="#808080"/>
<path d="M91.6639 18.0113H91.6364C91.5176 18.2313 91.1089 18.3038 90.8589 18.3488C89.2951 18.6263 87.3514 18.6113 87.3514 20.0875C87.3514 21.0088 88.1689 21.5788 89.0339 21.5788C90.4364 21.5788 91.6801 20.685 91.6639 19.2088V18.0113ZM86.7514 16.9C86.8389 15.13 88.0814 14.37 89.8064 14.37C91.1364 14.37 92.5839 14.78 92.5839 16.7963V20.8038C92.5839 21.1563 92.7614 21.3588 93.1264 21.3588C93.2289 21.3588 93.3451 21.33 93.4164 21.3V22.0763C93.2139 22.12 93.0676 22.135 92.8201 22.135C91.8839 22.135 91.7389 21.6075 91.7389 20.82H91.7076C91.0651 21.7988 90.4076 22.3538 88.9601 22.3538C87.5701 22.3538 86.4301 21.6663 86.4301 20.1463C86.4301 18.0263 88.4926 17.9513 90.4801 17.7188C91.2414 17.6313 91.6639 17.5288 91.6639 16.695C91.6639 15.4525 90.7714 15.145 89.6901 15.145C88.5501 15.145 87.7026 15.67 87.6726 16.9H86.7514V16.9Z" fill="#808080"/>
<path d="M99.7485 16.9596C99.5023 15.8321 98.8148 15.1446 97.6135 15.1446C95.846 15.1446 94.9673 16.7521 94.9673 18.3634C94.9673 19.9721 95.846 21.5784 97.6135 21.5784C98.756 21.5784 99.691 20.6846 99.8073 19.4309H100.73C100.481 21.2421 99.2948 22.3534 97.6135 22.3534C95.3035 22.3534 94.046 20.5259 94.046 18.3634C94.046 16.1984 95.3035 14.3709 97.6135 14.3709C99.2223 14.3709 100.465 15.2321 100.672 16.9596H99.7485Z" fill="#808080"/>
<path d="M103.477 14.5903H105.012V15.364H103.477V20.4515C103.477 21.0528 103.563 21.4028 104.224 21.4478C104.487 21.4478 104.75 21.4328 105.012 21.4028V22.194C104.734 22.194 104.47 22.2215 104.193 22.2215C102.967 22.2215 102.54 21.8128 102.557 20.5265V15.364H101.239V14.5903H102.557V12.324H103.477V14.5903Z" fill="#808080"/>
<path d="M106.883 18.3628C106.883 19.9715 107.76 21.5778 109.531 21.5778C111.298 21.5778 112.177 19.9715 112.177 18.3628C112.177 16.7528 111.298 15.144 109.531 15.144C107.76 15.144 106.883 16.7528 106.883 18.3628ZM113.097 18.3628C113.097 20.5253 111.84 22.3528 109.531 22.3528C107.221 22.3528 105.962 20.5253 105.962 18.3628C105.962 16.199 107.221 14.3703 109.531 14.3703C111.84 14.3703 113.097 16.199 113.097 18.3628Z" fill="#808080"/>
<path d="M114.471 14.5903H115.319V16.359H115.348C115.816 15.144 116.841 14.429 118.199 14.4878V15.4078C116.533 15.3203 115.393 16.549 115.393 18.1153V22.1353H114.471V14.5903Z" fill="#808080"/>
<path d="M118.228 14.5903H119.206L121.691 21.0228L124.019 14.5903H124.938L121.664 23.2878C121.138 24.5615 120.831 24.9278 119.675 24.9278C119.309 24.9115 119.121 24.9115 118.974 24.8528V24.079C119.193 24.1228 119.399 24.1515 119.601 24.1515C120.421 24.1515 120.61 23.669 120.92 22.9678L121.24 22.104L118.228 14.5903Z" fill="#808080"/>
<path d="M24.3708 23.596C24.3708 23.596 29.3808 14.1523 24.3708 9.31351C19.3595 4.47851 10.147 5.68601 5.712 16.456L0.645752 7.06976C0.645752 7.06976 4.90575 -0.128991 15.157 1.02101C15.157 1.02101 25.062 1.76101 27.8833 12.2485C27.8833 12.2485 24.1408 0.562258 11.0683 2.11601C11.0683 2.11601 5.7695 2.46226 2.372 7.12726L5.3095 11.561C5.3095 11.561 12.912 2.86476 20.9158 5.91601C28.9208 8.96851 29.267 16.9748 24.3708 23.596Z" fill="#1E71B8"/>
<path d="M3.23613 12.7701C3.23613 12.7701 0.874879 15.9376 1.44988 20.0251L6.80613 21.0626C6.80613 21.0626 6.46113 12.3101 12.1049 9.94888C12.1049 9.94888 5.76988 14.9589 10.5499 24.2876L0.298629 21.1214C0.298629 21.1214 -1.08262 16.5039 2.83363 12.2489L3.23613 12.7701Z" fill="#808080"/>
<path d="M10.1611 15.0626C10.1611 15.0626 8.06362 20.3851 13.8324 25.5864L8.91112 28.5314C8.91112 28.5314 6.20862 26.5964 5.52362 23.3289L4.55612 23.1676C4.55612 23.1676 5.40237 28.1689 8.82987 30.1439L18.4686 25.4264C18.4686 25.4264 9.31362 22.0789 10.1611 15.0626" fill="#1E71B8"/>
<path fill-rule="evenodd" clip-rule="evenodd" d="M24.0845 31.9505C23.2483 32.2443 22.3658 32.098 21.6858 31.6318L25.7608 30.2043C25.5183 30.9918 24.9208 31.6605 24.0845 31.9505Z" fill="#808080"/>
<path fill-rule="evenodd" clip-rule="evenodd" d="M19.7656 27.5193C19.3631 27.6593 18.9194 27.448 18.7781 27.0443C18.6369 26.6405 18.8506 26.198 19.2531 26.0568L24.1794 24.3318C24.5831 24.1893 25.0256 24.403 25.1669 24.8068C25.3081 25.208 25.0956 25.6518 24.6919 25.7943L19.7656 27.5193Z" fill="#808080"/>
<path fill-rule="evenodd" clip-rule="evenodd" d="M20.4243 29.3968C20.0205 29.5393 19.5793 29.3268 19.4368 28.923C19.2955 28.5193 19.508 28.0755 19.9118 27.9355L24.838 26.2105C25.2418 26.0693 25.683 26.2805 25.8255 26.6843C25.9668 27.0868 25.7543 27.5293 25.3493 27.6718L20.4243 29.3968Z" fill="#808080"/>
<path fill-rule="evenodd" clip-rule="evenodd" d="M21.0815 31.2754C20.679 31.4179 20.2377 31.2041 20.094 30.8029C19.9527 30.3966 20.1665 29.9554 20.5702 29.8129L25.4952 28.0854C25.899 27.9454 26.3415 28.1591 26.4827 28.5604C26.624 28.9666 26.4127 29.4079 26.0077 29.5504L21.0815 31.2754Z" fill="#808080"/>
</svg>
