<svg width="336" height="350" viewBox="0 0 336 350" fill="none" xmlns="http://www.w3.org/2000/svg">
<path d="M280.585 17.4759C314.761 40.9332 334.983 91.9181 335.893 143.76C336.702 195.709 318.098 248.407 283.922 288.574C249.645 328.741 199.899 356.375 158.039 347.914C116.179 339.452 82.4076 294.894 52.5798 254.727C22.7521 214.56 -3.13238 178.785 0.406512 146.652C3.9454 114.519 36.8065 86.1341 66.6343 62.6768C96.4621 39.3266 123.256 20.9034 160.668 9.65677C198.18 -1.58989 246.309 -5.87433 280.585 17.4759Z" fill="#709B8A"/>
<path d="M247.72 52.5403C273.301 74.6052 294.332 106.739 294.636 139.193C295.04 171.541 274.717 204.424 249.136 244.591C223.554 284.757 192.513 332.207 155.102 339.063C117.691 345.918 73.91 311.963 54.9011 271.797C35.9933 231.63 41.8577 185.251 43.5766 140.479C45.1944 95.8132 42.6666 52.9688 61.5744 30.7968C80.5833 8.62476 121.028 7.33944 156.417 12.695C191.806 18.1577 222.139 30.3683 247.72 52.5403Z" fill="#709B8A"/>
</svg>
