<svg id="visual" viewBox="0 0 900 450" width="900" height="450" xmlns="http://www.w3.org/2000/svg"
                    xmlns:xlink="http://www.w3.org/1999/xlink" version="1.1">
                    <g transform="translate(432.248196909801 195.03393019285062)">
                        <path id="blob1"
                            d="M129.1 -117.1C162.9 -95.2 182.9 -47.6 183.8 0.8C184.6 49.3 166.2 98.5 132.4 136C98.5 173.5 49.3 199.3 7.9 191.4C-33.5 183.5 -66.9 141.9 -96.4 104.4C-125.9 66.9 -151.5 33.5 -148 3.5C-144.5 -26.5 -112 -53 -82.5 -74.9C-53 -96.7 -26.5 -113.9 10.5 -124.4C47.6 -134.9 95.2 -138.9 129.1 -117.1"
                            fill="#709b8a"></path>
                    </g>
                    <g transform="translate(443.6439283447123 191.1704341835134)">
                        <path id="blob2"
                            d="M85.2 -80.5C110.5 -59.9 131.3 -29.9 131.6 0.4C132 30.6 111.9 61.3 86.6 98.8C61.3 136.3 30.6 180.6 -6.4 187C-43.4 193.4 -86.7 161.7 -105.5 124.2C-124.2 86.7 -118.4 43.4 -116.7 1.6C-115.1 -40.1 -117.6 -80.1 -98.9 -100.8C-80.1 -121.5 -40.1 -122.7 -5.1 -117.7C29.9 -112.6 59.9 -101.2 85.2 -80.5"
                            fill="#709b8a"></path>
                    </g>
                </svg>