<svg id="visual" viewBox="0 0 1000 100" width="1000" height="100" xmlns="http://www.w3.org/2000/svg" xmlns:xlink="http://www.w3.org/1999/xlink" version="1.1"><path d="M0 14L9.8 15.3C19.7 16.7 39.3 19.3 59 19.8C78.7 20.3 98.3 18.7 117.8 16.8C137.3 15 156.7 13 176.2 16C195.7 19 215.3 27 235 28.7C254.7 30.3 274.3 25.7 294 27.2C313.7 28.7 333.3 36.3 353 37.3C372.7 38.3 392.3 32.7 412 30.7C431.7 28.7 451.3 30.3 470.8 29C490.3 27.7 509.7 23.3 529.2 24.5C548.7 25.7 568.3 32.3 588 35.3C607.7 38.3 627.3 37.7 647 33.2C666.7 28.7 686.3 20.3 706 19.3C725.7 18.3 745.3 24.7 765 28.7C784.7 32.7 804.3 34.3 823.8 32C843.3 29.7 862.7 23.3 882.2 20.2C901.7 17 921.3 17 941 16.7C960.7 16.3 980.3 15.7 990.2 15.3L1000 15L1000 0L990.2 0C980.3 0 960.7 0 941 0C921.3 0 901.7 0 882.2 0C862.7 0 843.3 0 823.8 0C804.3 0 784.7 0 765 0C745.3 0 725.7 0 706 0C686.3 0 666.7 0 647 0C627.3 0 607.7 0 588 0C568.3 0 548.7 0 529.2 0C509.7 0 490.3 0 470.8 0C451.3 0 431.7 0 412 0C392.3 0 372.7 0 353 0C333.3 0 313.7 0 294 0C274.3 0 254.7 0 235 0C215.3 0 195.7 0 176.2 0C156.7 0 137.3 0 117.8 0C98.3 0 78.7 0 59 0C39.3 0 19.7 0 9.8 0L0 0Z" fill="#91c7b1"></path><path d="M0 23L9.8 24.7C19.7 26.3 39.3 29.7 59 30.2C78.7 30.7 98.3 28.3 117.8 27.2C137.3 26 156.7 26 176.2 30.2C195.7 34.3 215.3 42.7 235 43.2C254.7 43.7 274.3 36.3 294 37.5C313.7 38.7 333.3 48.3 353 50.2C372.7 52 392.3 46 412 43.5C431.7 41 451.3 42 470.8 40.8C490.3 39.7 509.7 36.3 529.2 37.5C548.7 38.7 568.3 44.3 588 45.7C607.7 47 627.3 44 647 40.2C666.7 36.3 686.3 31.7 706 31.7C725.7 31.7 745.3 36.3 765 39.8C784.7 43.3 804.3 45.7 823.8 43.7C843.3 41.7 862.7 35.3 882.2 31.5C901.7 27.7 921.3 26.3 941 26.7C960.7 27 980.3 29 990.2 30L1000 31L1000 13L990.2 13.3C980.3 13.7 960.7 14.3 941 14.7C921.3 15 901.7 15 882.2 18.2C862.7 21.3 843.3 27.7 823.8 30C804.3 32.3 784.7 30.7 765 26.7C745.3 22.7 725.7 16.3 706 17.3C686.3 18.3 666.7 26.7 647 31.2C627.3 35.7 607.7 36.3 588 33.3C568.3 30.3 548.7 23.7 529.2 22.5C509.7 21.3 490.3 25.7 470.8 27C451.3 28.3 431.7 26.7 412 28.7C392.3 30.7 372.7 36.3 353 35.3C333.3 34.3 313.7 26.7 294 25.2C274.3 23.7 254.7 28.3 235 26.7C215.3 25 195.7 17 176.2 14C156.7 11 137.3 13 117.8 14.8C98.3 16.7 78.7 18.3 59 17.8C39.3 17.3 19.7 14.7 9.8 13.3L0 12Z" fill="#73c7bf"></path><path d="M0 33L9.8 35.7C19.7 38.3 39.3 43.7 59 45.3C78.7 47 98.3 45 117.8 43.2C137.3 41.3 156.7 39.7 176.2 44.5C195.7 49.3 215.3 60.7 235 64C254.7 67.3 274.3 62.7 294 61.5C313.7 60.3 333.3 62.7 353 62C372.7 61.3 392.3 57.7 412 55.2C431.7 52.7 451.3 51.3 470.8 49.2C490.3 47 509.7 44 529.2 47C548.7 50 568.3 59 588 63.2C607.7 67.3 627.3 66.7 647 61.3C666.7 56 686.3 46 706 46C725.7 46 745.3 56 765 58.8C784.7 61.7 804.3 57.3 823.8 52.7C843.3 48 862.7 43 882.2 41.3C901.7 39.7 921.3 41.3 941 41.7C960.7 42 980.3 41 990.2 40.5L1000 40L1000 29L990.2 28C980.3 27 960.7 25 941 24.7C921.3 24.3 901.7 25.7 882.2 29.5C862.7 33.3 843.3 39.7 823.8 41.7C804.3 43.7 784.7 41.3 765 37.8C745.3 34.3 725.7 29.7 706 29.7C686.3 29.7 666.7 34.3 647 38.2C627.3 42 607.7 45 588 43.7C568.3 42.3 548.7 36.7 529.2 35.5C509.7 34.3 490.3 37.7 470.8 38.8C451.3 40 431.7 39 412 41.5C392.3 44 372.7 50 353 48.2C333.3 46.3 313.7 36.7 294 35.5C274.3 34.3 254.7 41.7 235 41.2C215.3 40.7 195.7 32.3 176.2 28.2C156.7 24 137.3 24 117.8 25.2C98.3 26.3 78.7 28.7 59 28.2C39.3 27.7 19.7 24.3 9.8 22.7L0 21Z" fill="#55c5d3"></path><path d="M0 45L9.8 47.2C19.7 49.3 39.3 53.7 59 55C78.7 56.3 98.3 54.7 117.8 52.5C137.3 50.3 156.7 47.7 176.2 52.2C195.7 56.7 215.3 68.3 235 71.5C254.7 74.7 274.3 69.3 294 68.3C313.7 67.3 333.3 70.7 353 71.3C372.7 72 392.3 70 412 66.8C431.7 63.7 451.3 59.3 470.8 56.8C490.3 54.3 509.7 53.7 529.2 57.5C548.7 61.3 568.3 69.7 588 73C607.7 76.3 627.3 74.7 647 70.2C666.7 65.7 686.3 58.3 706 58.2C725.7 58 745.3 65 765 67.3C784.7 69.7 804.3 67.3 823.8 64C843.3 60.7 862.7 56.3 882.2 55.2C901.7 54 921.3 56 941 55.5C960.7 55 980.3 52 990.2 50.5L1000 49L1000 38L990.2 38.5C980.3 39 960.7 40 941 39.7C921.3 39.3 901.7 37.7 882.2 39.3C862.7 41 843.3 46 823.8 50.7C804.3 55.3 784.7 59.7 765 56.8C745.3 54 725.7 44 706 44C686.3 44 666.7 54 647 59.3C627.3 64.7 607.7 65.3 588 61.2C568.3 57 548.7 48 529.2 45C509.7 42 490.3 45 470.8 47.2C451.3 49.3 431.7 50.7 412 53.2C392.3 55.7 372.7 59.3 353 60C333.3 60.7 313.7 58.3 294 59.5C274.3 60.7 254.7 65.3 235 62C215.3 58.7 195.7 47.3 176.2 42.5C156.7 37.7 137.3 39.3 117.8 41.2C98.3 43 78.7 45 59 43.3C39.3 41.7 19.7 36.3 9.8 33.7L0 31Z" fill="#42c0e8"></path><path d="M0 51L9.8 54C19.7 57 39.3 63 59 66C78.7 69 98.3 69 117.8 67.5C137.3 66 156.7 63 176.2 66.7C195.7 70.3 215.3 80.7 235 82.3C254.7 84 274.3 77 294 75.5C313.7 74 333.3 78 353 79.3C372.7 80.7 392.3 79.3 412 75.7C431.7 72 451.3 66 470.8 64.7C490.3 63.3 509.7 66.7 529.2 71.5C548.7 76.3 568.3 82.7 588 85.2C607.7 87.7 627.3 86.3 647 80.7C666.7 75 686.3 65 706 64.8C725.7 64.7 745.3 74.3 765 78.8C784.7 83.3 804.3 82.7 823.8 79.5C843.3 76.3 862.7 70.7 882.2 69C901.7 67.3 921.3 69.7 941 68.5C960.7 67.3 980.3 62.7 990.2 60.3L1000 58L1000 47L990.2 48.5C980.3 50 960.7 53 941 53.5C921.3 54 901.7 52 882.2 53.2C862.7 54.3 843.3 58.7 823.8 62C804.3 65.3 784.7 67.7 765 65.3C745.3 63 725.7 56 706 56.2C686.3 56.3 666.7 63.7 647 68.2C627.3 72.7 607.7 74.3 588 71C568.3 67.7 548.7 59.3 529.2 55.5C509.7 51.7 490.3 52.3 470.8 54.8C451.3 57.3 431.7 61.7 412 64.8C392.3 68 372.7 70 353 69.3C333.3 68.7 313.7 65.3 294 66.3C274.3 67.3 254.7 72.7 235 69.5C215.3 66.3 195.7 54.7 176.2 50.2C156.7 45.7 137.3 48.3 117.8 50.5C98.3 52.7 78.7 54.3 59 53C39.3 51.7 19.7 47.3 9.8 45.2L0 43Z" fill="#53b8f8"></path><path d="M0 101L9.8 101C19.7 101 39.3 101 59 101C78.7 101 98.3 101 117.8 101C137.3 101 156.7 101 176.2 101C195.7 101 215.3 101 235 101C254.7 101 274.3 101 294 101C313.7 101 333.3 101 353 101C372.7 101 392.3 101 412 101C431.7 101 451.3 101 470.8 101C490.3 101 509.7 101 529.2 101C548.7 101 568.3 101 588 101C607.7 101 627.3 101 647 101C666.7 101 686.3 101 706 101C725.7 101 745.3 101 765 101C784.7 101 804.3 101 823.8 101C843.3 101 862.7 101 882.2 101C901.7 101 921.3 101 941 101C960.7 101 980.3 101 990.2 101L1000 101L1000 56L990.2 58.3C980.3 60.7 960.7 65.3 941 66.5C921.3 67.7 901.7 65.3 882.2 67C862.7 68.7 843.3 74.3 823.8 77.5C804.3 80.7 784.7 81.3 765 76.8C745.3 72.3 725.7 62.7 706 62.8C686.3 63 666.7 73 647 78.7C627.3 84.3 607.7 85.7 588 83.2C568.3 80.7 548.7 74.3 529.2 69.5C509.7 64.7 490.3 61.3 470.8 62.7C451.3 64 431.7 70 412 73.7C392.3 77.3 372.7 78.7 353 77.3C333.3 76 313.7 72 294 73.5C274.3 75 254.7 82 235 80.3C215.3 78.7 195.7 68.3 176.2 64.7C156.7 61 137.3 64 117.8 65.5C98.3 67 78.7 67 59 64C39.3 61 19.7 55 9.8 52L0 49Z" fill="#7facff"></path></svg>