<svg id="visual" viewBox="0 0 1000 100" width="1000" height="100" xmlns="http://www.w3.org/2000/svg" xmlns:xlink="http://www.w3.org/1999/xlink" version="1.1"><path d="M0 19L9.8 19C19.7 19 39.3 19 59 18.3C78.7 17.7 98.3 16.3 117.8 16.8C137.3 17.3 156.7 19.7 176.2 20.7C195.7 21.7 215.3 21.3 235 21C254.7 20.7 274.3 20.3 294 19C313.7 17.7 333.3 15.3 353 15.5C372.7 15.7 392.3 18.3 412 19.7C431.7 21 451.3 21 470.8 20.7C490.3 20.3 509.7 19.7 529.2 18.2C548.7 16.7 568.3 14.3 588 12.8C607.7 11.3 627.3 10.7 647 10.5C666.7 10.3 686.3 10.7 706 10.2C725.7 9.7 745.3 8.3 765 9.2C784.7 10 804.3 13 823.8 13.3C843.3 13.7 862.7 11.3 882.2 10.5C901.7 9.7 921.3 10.3 941 10C960.7 9.7 980.3 8.3 990.2 7.7L1000 7L1000 0L990.2 0C980.3 0 960.7 0 941 0C921.3 0 901.7 0 882.2 0C862.7 0 843.3 0 823.8 0C804.3 0 784.7 0 765 0C745.3 0 725.7 0 706 0C686.3 0 666.7 0 647 0C627.3 0 607.7 0 588 0C568.3 0 548.7 0 529.2 0C509.7 0 490.3 0 470.8 0C451.3 0 431.7 0 412 0C392.3 0 372.7 0 353 0C333.3 0 313.7 0 294 0C274.3 0 254.7 0 235 0C215.3 0 195.7 0 176.2 0C156.7 0 137.3 0 117.8 0C98.3 0 78.7 0 59 0C39.3 0 19.7 0 9.8 0L0 0Z" fill="#fffcf9"></path><path d="M0 41L9.8 41.5C19.7 42 39.3 43 59 41.7C78.7 40.3 98.3 36.7 117.8 36.3C137.3 36 156.7 39 176.2 40.7C195.7 42.3 215.3 42.7 235 41.7C254.7 40.7 274.3 38.3 294 36.2C313.7 34 333.3 32 353 31.2C372.7 30.3 392.3 30.7 412 32.5C431.7 34.3 451.3 37.7 470.8 37.2C490.3 36.7 509.7 32.3 529.2 31.2C548.7 30 568.3 32 588 32.8C607.7 33.7 627.3 33.3 647 33.2C666.7 33 686.3 33 706 29.8C725.7 26.7 745.3 20.3 765 21.5C784.7 22.7 804.3 31.3 823.8 32C843.3 32.7 862.7 25.3 882.2 22C901.7 18.7 921.3 19.3 941 20.2C960.7 21 980.3 22 990.2 22.5L1000 23L1000 5L990.2 5.7C980.3 6.3 960.7 7.7 941 8C921.3 8.3 901.7 7.7 882.2 8.5C862.7 9.3 843.3 11.7 823.8 11.3C804.3 11 784.7 8 765 7.2C745.3 6.3 725.7 7.7 706 8.2C686.3 8.7 666.7 8.3 647 8.5C627.3 8.7 607.7 9.3 588 10.8C568.3 12.3 548.7 14.7 529.2 16.2C509.7 17.7 490.3 18.3 470.8 18.7C451.3 19 431.7 19 412 17.7C392.3 16.3 372.7 13.7 353 13.5C333.3 13.3 313.7 15.7 294 17C274.3 18.3 254.7 18.7 235 19C215.3 19.3 195.7 19.7 176.2 18.7C156.7 17.7 137.3 15.3 117.8 14.8C98.3 14.3 78.7 15.7 59 16.3C39.3 17 19.7 17 9.8 17L0 17Z" fill="#d6d2cf"></path><path d="M0 49L9.8 49C19.7 49 39.3 49 59 48.3C78.7 47.7 98.3 46.3 117.8 46.3C137.3 46.3 156.7 47.7 176.2 48.3C195.7 49 215.3 49 235 49.2C254.7 49.3 274.3 49.7 294 48.5C313.7 47.3 333.3 44.7 353 43C372.7 41.3 392.3 40.7 412 41.8C431.7 43 451.3 46 470.8 46.5C490.3 47 509.7 45 529.2 45C548.7 45 568.3 47 588 47.7C607.7 48.3 627.3 47.7 647 47.3C666.7 47 686.3 47 706 43.5C725.7 40 745.3 33 765 32.7C784.7 32.3 804.3 38.7 823.8 38C843.3 37.3 862.7 29.7 882.2 27.8C901.7 26 921.3 30 941 32.7C960.7 35.3 980.3 36.7 990.2 37.3L1000 38L1000 21L990.2 20.5C980.3 20 960.7 19 941 18.2C921.3 17.3 901.7 16.7 882.2 20C862.7 23.3 843.3 30.7 823.8 30C804.3 29.3 784.7 20.7 765 19.5C745.3 18.3 725.7 24.7 706 27.8C686.3 31 666.7 31 647 31.2C627.3 31.3 607.7 31.7 588 30.8C568.3 30 548.7 28 529.2 29.2C509.7 30.3 490.3 34.7 470.8 35.2C451.3 35.7 431.7 32.3 412 30.5C392.3 28.7 372.7 28.3 353 29.2C333.3 30 313.7 32 294 34.2C274.3 36.3 254.7 38.7 235 39.7C215.3 40.7 195.7 40.3 176.2 38.7C156.7 37 137.3 34 117.8 34.3C98.3 34.7 78.7 38.3 59 39.7C39.3 41 19.7 40 9.8 39.5L0 39Z" fill="#adaaa7"></path><path d="M0 67L9.8 68.2C19.7 69.3 39.3 71.7 59 73.3C78.7 75 98.3 76 117.8 77.2C137.3 78.3 156.7 79.7 176.2 77.2C195.7 74.7 215.3 68.3 235 68.3C254.7 68.3 274.3 74.7 294 77.2C313.7 79.7 333.3 78.3 353 77.7C372.7 77 392.3 77 412 75.3C431.7 73.7 451.3 70.3 470.8 70.3C490.3 70.3 509.7 73.7 529.2 74.7C548.7 75.7 568.3 74.3 588 72.2C607.7 70 627.3 67 647 65C666.7 63 686.3 62 706 61.3C725.7 60.7 745.3 60.3 765 61.5C784.7 62.7 804.3 65.3 823.8 67.2C843.3 69 862.7 70 882.2 67.3C901.7 64.7 921.3 58.3 941 59.5C960.7 60.7 980.3 69.3 990.2 73.7L1000 78L1000 36L990.2 35.3C980.3 34.7 960.7 33.3 941 30.7C921.3 28 901.7 24 882.2 25.8C862.7 27.7 843.3 35.3 823.8 36C804.3 36.7 784.7 30.3 765 30.7C745.3 31 725.7 38 706 41.5C686.3 45 666.7 45 647 45.3C627.3 45.7 607.7 46.3 588 45.7C568.3 45 548.7 43 529.2 43C509.7 43 490.3 45 470.8 44.5C451.3 44 431.7 41 412 39.8C392.3 38.7 372.7 39.3 353 41C333.3 42.7 313.7 45.3 294 46.5C274.3 47.7 254.7 47.3 235 47.2C215.3 47 195.7 47 176.2 46.3C156.7 45.7 137.3 44.3 117.8 44.3C98.3 44.3 78.7 45.7 59 46.3C39.3 47 19.7 47 9.8 47L0 47Z" fill="#878480"></path><path d="M0 87L9.8 88.5C19.7 90 39.3 93 59 93.7C78.7 94.3 98.3 92.7 117.8 92C137.3 91.3 156.7 91.7 176.2 92C195.7 92.3 215.3 92.7 235 92.5C254.7 92.3 274.3 91.7 294 91.3C313.7 91 333.3 91 353 90.7C372.7 90.3 392.3 89.7 412 90.2C431.7 90.7 451.3 92.3 470.8 92.7C490.3 93 509.7 92 529.2 92.5C548.7 93 568.3 95 588 94C607.7 93 627.3 89 647 87.2C666.7 85.3 686.3 85.7 706 86.5C725.7 87.3 745.3 88.7 765 89C784.7 89.3 804.3 88.7 823.8 88.5C843.3 88.3 862.7 88.7 882.2 88.7C901.7 88.7 921.3 88.3 941 88.5C960.7 88.7 980.3 89.3 990.2 89.7L1000 90L1000 76L990.2 71.7C980.3 67.3 960.7 58.7 941 57.5C921.3 56.3 901.7 62.7 882.2 65.3C862.7 68 843.3 67 823.8 65.2C804.3 63.3 784.7 60.7 765 59.5C745.3 58.3 725.7 58.7 706 59.3C686.3 60 666.7 61 647 63C627.3 65 607.7 68 588 70.2C568.3 72.3 548.7 73.7 529.2 72.7C509.7 71.7 490.3 68.3 470.8 68.3C451.3 68.3 431.7 71.7 412 73.3C392.3 75 372.7 75 353 75.7C333.3 76.3 313.7 77.7 294 75.2C274.3 72.7 254.7 66.3 235 66.3C215.3 66.3 195.7 72.7 176.2 75.2C156.7 77.7 137.3 76.3 117.8 75.2C98.3 74 78.7 73 59 71.3C39.3 69.7 19.7 67.3 9.8 66.2L0 65Z" fill="#625f5b"></path><path d="M0 101L9.8 101C19.7 101 39.3 101 59 101C78.7 101 98.3 101 117.8 101C137.3 101 156.7 101 176.2 101C195.7 101 215.3 101 235 101C254.7 101 274.3 101 294 101C313.7 101 333.3 101 353 101C372.7 101 392.3 101 412 101C431.7 101 451.3 101 470.8 101C490.3 101 509.7 101 529.2 101C548.7 101 568.3 101 588 101C607.7 101 627.3 101 647 101C666.7 101 686.3 101 706 101C725.7 101 745.3 101 765 101C784.7 101 804.3 101 823.8 101C843.3 101 862.7 101 882.2 101C901.7 101 921.3 101 941 101C960.7 101 980.3 101 990.2 101L1000 101L1000 88L990.2 87.7C980.3 87.3 960.7 86.7 941 86.5C921.3 86.3 901.7 86.7 882.2 86.7C862.7 86.7 843.3 86.3 823.8 86.5C804.3 86.7 784.7 87.3 765 87C745.3 86.7 725.7 85.3 706 84.5C686.3 83.7 666.7 83.3 647 85.2C627.3 87 607.7 91 588 92C568.3 93 548.7 91 529.2 90.5C509.7 90 490.3 91 470.8 90.7C451.3 90.3 431.7 88.7 412 88.2C392.3 87.7 372.7 88.3 353 88.7C333.3 89 313.7 89 294 89.3C274.3 89.7 254.7 90.3 235 90.5C215.3 90.7 195.7 90.3 176.2 90C156.7 89.7 137.3 89.3 117.8 90C98.3 90.7 78.7 92.3 59 91.7C39.3 91 19.7 88 9.8 86.5L0 85Z" fill="#403d39"></path></svg>