<svg id="visual" viewBox="0 0 1000 100" width="1000" height="100" xmlns="http://www.w3.org/2000/svg" xmlns:xlink="http://www.w3.org/1999/xlink" version="1.1"><path d="M0 13L9.8 13C19.7 13 39.3 13 59 13.2C78.7 13.3 98.3 13.7 117.8 14.5C137.3 15.3 156.7 16.7 176.2 16.3C195.7 16 215.3 14 235 13.8C254.7 13.7 274.3 15.3 294 15C313.7 14.7 333.3 12.3 353 11.7C372.7 11 392.3 12 412 13.2C431.7 14.3 451.3 15.7 470.8 16.5C490.3 17.3 509.7 17.7 529.2 16.5C548.7 15.3 568.3 12.7 588 13.5C607.7 14.3 627.3 18.7 647 20.2C666.7 21.7 686.3 20.3 706 19.2C725.7 18 745.3 17 765 16.5C784.7 16 804.3 16 823.8 16.5C843.3 17 862.7 18 882.2 17C901.7 16 921.3 13 941 12.8C960.7 12.7 980.3 15.3 990.2 16.7L1000 18L1000 0L990.2 0C980.3 0 960.7 0 941 0C921.3 0 901.7 0 882.2 0C862.7 0 843.3 0 823.8 0C804.3 0 784.7 0 765 0C745.3 0 725.7 0 706 0C686.3 0 666.7 0 647 0C627.3 0 607.7 0 588 0C568.3 0 548.7 0 529.2 0C509.7 0 490.3 0 470.8 0C451.3 0 431.7 0 412 0C392.3 0 372.7 0 353 0C333.3 0 313.7 0 294 0C274.3 0 254.7 0 235 0C215.3 0 195.7 0 176.2 0C156.7 0 137.3 0 117.8 0C98.3 0 78.7 0 59 0C39.3 0 19.7 0 9.8 0L0 0Z" fill="#7facff"></path><path d="M0 21L9.8 21.5C19.7 22 39.3 23 59 23.2C78.7 23.3 98.3 22.7 117.8 22.8C137.3 23 156.7 24 176.2 24.3C195.7 24.7 215.3 24.3 235 25.2C254.7 26 274.3 28 294 26.5C313.7 25 333.3 20 353 19C372.7 18 392.3 21 412 22.8C431.7 24.7 451.3 25.3 470.8 25.5C490.3 25.7 509.7 25.3 529.2 24.7C548.7 24 568.3 23 588 24.7C607.7 26.3 627.3 30.7 647 32.5C666.7 34.3 686.3 33.7 706 32.7C725.7 31.7 745.3 30.3 765 29.5C784.7 28.7 804.3 28.3 823.8 28.3C843.3 28.3 862.7 28.7 882.2 27.2C901.7 25.7 921.3 22.3 941 21.3C960.7 20.3 980.3 21.7 990.2 22.3L1000 23L1000 16L990.2 14.7C980.3 13.3 960.7 10.7 941 10.8C921.3 11 901.7 14 882.2 15C862.7 16 843.3 15 823.8 14.5C804.3 14 784.7 14 765 14.5C745.3 15 725.7 16 706 17.2C686.3 18.3 666.7 19.7 647 18.2C627.3 16.7 607.7 12.3 588 11.5C568.3 10.7 548.7 13.3 529.2 14.5C509.7 15.7 490.3 15.3 470.8 14.5C451.3 13.7 431.7 12.3 412 11.2C392.3 10 372.7 9 353 9.7C333.3 10.3 313.7 12.7 294 13C274.3 13.3 254.7 11.7 235 11.8C215.3 12 195.7 14 176.2 14.3C156.7 14.7 137.3 13.3 117.8 12.5C98.3 11.7 78.7 11.3 59 11.2C39.3 11 19.7 11 9.8 11L0 11Z" fill="#61c4fb"></path><path d="M0 31L9.8 32.3C19.7 33.7 39.3 36.3 59 37.2C78.7 38 98.3 37 117.8 37.2C137.3 37.3 156.7 38.7 176.2 37.5C195.7 36.3 215.3 32.7 235 31.7C254.7 30.7 274.3 32.3 294 31.2C313.7 30 333.3 26 353 25.2C372.7 24.3 392.3 26.7 412 29.8C431.7 33 451.3 37 470.8 37.8C490.3 38.7 509.7 36.3 529.2 33.8C548.7 31.3 568.3 28.7 588 31.3C607.7 34 627.3 42 647 44.8C666.7 47.7 686.3 45.3 706 43.3C725.7 41.3 745.3 39.7 765 39.7C784.7 39.7 804.3 41.3 823.8 42.5C843.3 43.7 862.7 44.3 882.2 41.8C901.7 39.3 921.3 33.7 941 30.7C960.7 27.7 980.3 27.3 990.2 27.2L1000 27L1000 21L990.2 20.3C980.3 19.7 960.7 18.3 941 19.3C921.3 20.3 901.7 23.7 882.2 25.2C862.7 26.7 843.3 26.3 823.8 26.3C804.3 26.3 784.7 26.7 765 27.5C745.3 28.3 725.7 29.7 706 30.7C686.3 31.7 666.7 32.3 647 30.5C627.3 28.7 607.7 24.3 588 22.7C568.3 21 548.7 22 529.2 22.7C509.7 23.3 490.3 23.7 470.8 23.5C451.3 23.3 431.7 22.7 412 20.8C392.3 19 372.7 16 353 17C333.3 18 313.7 23 294 24.5C274.3 26 254.7 24 235 23.2C215.3 22.3 195.7 22.7 176.2 22.3C156.7 22 137.3 21 117.8 20.8C98.3 20.7 78.7 21.3 59 21.2C39.3 21 19.7 20 9.8 19.5L0 19Z" fill="#76d6ec"></path><path d="M0 46L9.8 48C19.7 50 39.3 54 59 57.7C78.7 61.3 98.3 64.7 117.8 66C137.3 67.3 156.7 66.7 176.2 65.3C195.7 64 215.3 62 235 59.8C254.7 57.7 274.3 55.3 294 51.7C313.7 48 333.3 43 353 42.7C372.7 42.3 392.3 46.7 412 50.5C431.7 54.3 451.3 57.7 470.8 59.3C490.3 61 509.7 61 529.2 62.3C548.7 63.7 568.3 66.3 588 67.7C607.7 69 627.3 69 647 69C666.7 69 686.3 69 706 66C725.7 63 745.3 57 765 57.5C784.7 58 804.3 65 823.8 65.7C843.3 66.3 862.7 60.7 882.2 60.3C901.7 60 921.3 65 941 63.2C960.7 61.3 980.3 52.7 990.2 48.3L1000 44L1000 25L990.2 25.2C980.3 25.3 960.7 25.7 941 28.7C921.3 31.7 901.7 37.3 882.2 39.8C862.7 42.3 843.3 41.7 823.8 40.5C804.3 39.3 784.7 37.7 765 37.7C745.3 37.7 725.7 39.3 706 41.3C686.3 43.3 666.7 45.7 647 42.8C627.3 40 607.7 32 588 29.3C568.3 26.7 548.7 29.3 529.2 31.8C509.7 34.3 490.3 36.7 470.8 35.8C451.3 35 431.7 31 412 27.8C392.3 24.7 372.7 22.3 353 23.2C333.3 24 313.7 28 294 29.2C274.3 30.3 254.7 28.7 235 29.7C215.3 30.7 195.7 34.3 176.2 35.5C156.7 36.7 137.3 35.3 117.8 35.2C98.3 35 78.7 36 59 35.2C39.3 34.3 19.7 31.7 9.8 30.3L0 29Z" fill="#a2e3de"></path><path d="M0 62L9.8 63.5C19.7 65 39.3 68 59 70.2C78.7 72.3 98.3 73.7 117.8 74.2C137.3 74.7 156.7 74.3 176.2 75.3C195.7 76.3 215.3 78.7 235 78.5C254.7 78.3 274.3 75.7 294 71.7C313.7 67.7 333.3 62.3 353 61.8C372.7 61.3 392.3 65.7 412 68.7C431.7 71.7 451.3 73.3 470.8 75C490.3 76.7 509.7 78.3 529.2 80.8C548.7 83.3 568.3 86.7 588 86.5C607.7 86.3 627.3 82.7 647 80.7C666.7 78.7 686.3 78.3 706 76.7C725.7 75 745.3 72 765 71.8C784.7 71.7 804.3 74.3 823.8 74.8C843.3 75.3 862.7 73.7 882.2 73.7C901.7 73.7 921.3 75.3 941 72.3C960.7 69.3 980.3 61.7 990.2 57.8L1000 54L1000 42L990.2 46.3C980.3 50.7 960.7 59.3 941 61.2C921.3 63 901.7 58 882.2 58.3C862.7 58.7 843.3 64.3 823.8 63.7C804.3 63 784.7 56 765 55.5C745.3 55 725.7 61 706 64C686.3 67 666.7 67 647 67C627.3 67 607.7 67 588 65.7C568.3 64.3 548.7 61.7 529.2 60.3C509.7 59 490.3 59 470.8 57.3C451.3 55.7 431.7 52.3 412 48.5C392.3 44.7 372.7 40.3 353 40.7C333.3 41 313.7 46 294 49.7C274.3 53.3 254.7 55.7 235 57.8C215.3 60 195.7 62 176.2 63.3C156.7 64.7 137.3 65.3 117.8 64C98.3 62.7 78.7 59.3 59 55.7C39.3 52 19.7 48 9.8 46L0 44Z" fill="#ceeddd"></path><path d="M0 101L9.8 101C19.7 101 39.3 101 59 101C78.7 101 98.3 101 117.8 101C137.3 101 156.7 101 176.2 101C195.7 101 215.3 101 235 101C254.7 101 274.3 101 294 101C313.7 101 333.3 101 353 101C372.7 101 392.3 101 412 101C431.7 101 451.3 101 470.8 101C490.3 101 509.7 101 529.2 101C548.7 101 568.3 101 588 101C607.7 101 627.3 101 647 101C666.7 101 686.3 101 706 101C725.7 101 745.3 101 765 101C784.7 101 804.3 101 823.8 101C843.3 101 862.7 101 882.2 101C901.7 101 921.3 101 941 101C960.7 101 980.3 101 990.2 101L1000 101L1000 52L990.2 55.8C980.3 59.7 960.7 67.3 941 70.3C921.3 73.3 901.7 71.7 882.2 71.7C862.7 71.7 843.3 73.3 823.8 72.8C804.3 72.3 784.7 69.7 765 69.8C745.3 70 725.7 73 706 74.7C686.3 76.3 666.7 76.7 647 78.7C627.3 80.7 607.7 84.3 588 84.5C568.3 84.7 548.7 81.3 529.2 78.8C509.7 76.3 490.3 74.7 470.8 73C451.3 71.3 431.7 69.7 412 66.7C392.3 63.7 372.7 59.3 353 59.8C333.3 60.3 313.7 65.7 294 69.7C274.3 73.7 254.7 76.3 235 76.5C215.3 76.7 195.7 74.3 176.2 73.3C156.7 72.3 137.3 72.7 117.8 72.2C98.3 71.7 78.7 70.3 59 68.2C39.3 66 19.7 63 9.8 61.5L0 60Z" fill="#f1f7ed"></path></svg>